<?xml version="1.0" standalone="no"?><!DOCTYPE svg PUBLIC "-//W3C//DTD SVG 1.1//EN" "http://www.w3.org/Graphics/SVG/1.1/DTD/svg11.dtd"><svg t="1608272011945" class="icon" viewBox="0 0 1024 1024" version="1.1" xmlns="http://www.w3.org/2000/svg" p-id="19827" xmlns:xlink="http://www.w3.org/1999/xlink" width="32" height="32"><defs><style type="text/css"></style></defs><path d="M800 320 224 320c-17.664 0-32-14.336-32-32s14.336-32 32-32l576 0c17.696 0 32 14.336 32 32S817.696 320 800 320z" p-id="19828" fill="#1296db"></path><path d="M800 544 224 544c-17.664 0-32-14.336-32-32s14.336-32 32-32l576 0c17.696 0 32 14.336 32 32S817.696 544 800 544z" p-id="19829" fill="#1296db"></path><path d="M800 768 224 768c-17.664 0-32-14.336-32-32s14.336-32 32-32l576 0c17.696 0 32 14.336 32 32S817.696 768 800 768z" p-id="19830" fill="#1296db"></path></svg>